<?xml version="1.0" standalone="no"?>
<!DOCTYPE svg PUBLIC "-//W3C//DTD SVG 20010904//EN"
 "http://www.w3.org/TR/2001/REC-SVG-20010904/DTD/svg10.dtd">
<svg version="1.0" xmlns="http://www.w3.org/2000/svg"
 width="1225.000000pt" height="1225.000000pt" viewBox="0 0 1225.000000 1225.000000"
 preserveAspectRatio="xMidYMid meet">
<metadata>
Created by potrace 1.11, written by Peter Selinger 2001-2013
</metadata>
<g transform="translate(0.000000,1225.000000) scale(0.100000,-0.100000)"
fill="#000000" stroke="none">
<path d="M2669 9456 c-2 -2 -26 -7 -54 -10 -104 -14 -160 -24 -248 -47 -252
-64 -547 -213 -757 -382 -112 -90 -279 -262 -357 -368 -209 -283 -330 -570
-388 -914 -32 -190 -22 -493 22 -700 8 -38 16 -80 19 -92 9 -47 83 -252 120
-333 252 -556 784 -993 1376 -1129 46 -11 106 -22 133 -26 28 -4 64 -9 80 -12
17 -3 314 -6 660 -7 l630 -2 0 -479 0 -480 -855 -1 c-470 0 -884 -4 -920 -8
-36 -4 -87 -9 -115 -12 -383 -40 -581 -126 -813 -356 -76 -75 -164 -193 -207
-277 -45 -89 -98 -273 -120 -416 -3 -22 -10 -67 -15 -100 -9 -60 -18 -140 -24
-226 -4 -57 15 -106 46 -118 26 -10 8664 -8 8716 2 18 3 52 9 75 12 320 46
677 205 951 423 71 57 211 192 276 267 152 176 308 447 379 662 34 99 77 273
85 343 3 25 9 70 12 100 13 106 8 369 -10 490 -56 380 -216 728 -463 1009
l-30 34 50 81 c198 319 305 698 301 1066 -1 104 -10 245 -19 291 -3 13 -9 49
-15 79 -6 30 -13 68 -15 84 -9 43 -64 213 -92 281 -158 379 -403 682 -748 926
-27 19 -57 38 -65 42 -8 4 -37 21 -65 37 -230 138 -476 220 -780 259 -66 9
-6747 15 -6756 7z m1239 -2007 l0 -489 -212 -1 c-562 -1 -794 1 -823 10 -18 5
-33 8 -33 5 0 -2 -30 11 -67 30 -74 37 -151 105 -200 177 -76 111 -98 278 -54
411 55 164 214 311 361 334 19 3 36 7 38 9 2 2 225 3 496 3 l493 0 1 -489z
m5307 472 c240 -67 397 -316 353 -561 -30 -169 -164 -314 -337 -364 -48 -14
-238 -16 -1814 -13 l-1760 2 0 466 c0 257 3 471 7 477 4 7 571 10 1747 10
1621 0 1746 -1 1804 -17z m-3400 -2502 c106 -29 225 -116 284 -207 95 -149 94
-357 -3 -510 -64 -101 -211 -203 -311 -217 -102 -13 -115 -13 -121 -3 -5 8 -9
814 -5 934 1 19 6 20 58 17 32 -2 76 -8 98 -14z m3585 -7 c151 -49 273 -170
320 -316 29 -90 16 -240 -30 -344 -48 -107 -175 -218 -294 -254 -70 -22 -77
-22 -851 -22 -573 0 -779 3 -778 11 1 6 5 26 8 45 3 18 10 51 15 73 18 82 25
185 25 360 0 188 -5 255 -30 383 -3 15 -8 41 -11 57 l-6 30 784 -1 c767 -1
784 -2 848 -22z"/>
</g>
</svg>
